<svg width="21" height="20" viewBox="0 0 21 20" fill="none" xmlns="http://www.w3.org/2000/svg">
<path d="M6.85742 13.4174H4.2962C2.67316 13.4174 1.35742 12.3105 1.35742 10.6874C1.35742 9.06438 2.67316 7.74865 4.2962 7.74865C4.40657 7.74865 4.51552 7.75473 4.62273 7.76658V7.74865H4.66315C4.63647 7.53471 4.62273 7.31675 4.62273 7.09558C4.62273 4.21018 6.96181 1.87109 9.84722 1.87109C11.8011 1.87109 13.5045 2.94371 14.4007 4.53224C14.6197 4.50002 14.8438 4.48334 15.0717 4.48334C17.5964 4.48334 19.6431 6.53004 19.6431 9.05477C19.6431 11.3578 17.9401 13.0542 15.7248 13.3711H13.3574M10.1737 8.07518V18.1283M10.1737 18.1283L7.85742 15.8711M10.1737 18.1283L12.4288 15.8711" stroke="#388FF3" stroke-width="2" stroke-linecap="round" stroke-linejoin="round"/>
</svg>
