<svg width="18" height="18" viewBox="0 0 18 18" fill="none" xmlns="http://www.w3.org/2000/svg">
<path d="M16.2202 14.6423C16.2202 14.6423 15.2546 15.5906 15.018 15.8686C14.6325 16.28 14.1784 16.4742 13.583 16.4742C13.5258 16.4742 13.4647 16.4742 13.4075 16.4704C12.274 16.398 11.2207 15.9562 10.4307 15.5792C8.27058 14.5356 6.37382 13.0541 4.79764 11.1764C3.49624 9.61108 2.6261 8.16381 2.04982 6.60989C1.6949 5.66155 1.56514 4.92268 1.62238 4.2257C1.66055 3.78009 1.83229 3.41066 2.14905 3.09454L3.45045 1.7958C3.63745 1.62061 3.8359 1.52539 4.03054 1.52539C4.27098 1.52539 4.46561 1.67012 4.58774 1.79199C4.59155 1.7958 4.59537 1.79961 4.59919 1.80342C4.83199 2.02051 5.05334 2.24522 5.28614 2.48516C5.40445 2.60704 5.52658 2.72891 5.6487 2.8546L6.69058 3.89435C7.09512 4.29806 7.09512 4.67131 6.69058 5.07502C6.57991 5.18547 6.47305 5.29592 6.36237 5.40256C6.04179 5.7301 6.29363 5.47878 5.9616 5.77586C5.95396 5.78347 5.94633 5.78728 5.94252 5.7949C5.6143 6.12244 5.67537 6.44236 5.74406 6.65946C5.74788 6.67088 5.75169 6.68231 5.75551 6.69373C6.02648 7.34881 6.40812 7.96581 6.98821 8.70087L6.99203 8.70468C8.04536 9.99961 9.15594 11.0089 10.381 11.782C10.5375 11.8811 10.6978 11.961 10.8504 12.0372C10.9878 12.1058 11.1176 12.1705 11.2282 12.2391C11.2435 12.2467 11.2588 12.2581 11.274 12.2657C11.4038 12.3305 11.5259 12.361 11.6519 12.361C11.9686 12.361 12.1671 12.1629 12.232 12.0982L12.98 11.3516C13.1098 11.2221 13.3159 11.066 13.5563 11.066C13.7929 11.066 13.9876 11.2145 14.1059 11.344C14.1097 11.3478 14.1097 11.3478 14.1135 11.3516L16.2164 13.4502C16.6094 13.8386 16.2202 14.6423 16.2202 14.6423Z" stroke="white" stroke-width="2" stroke-linecap="round" stroke-linejoin="round"/>
</svg>
