<svg width="80" height="80" viewBox="0 0 80 80" fill="none" xmlns="http://www.w3.org/2000/svg">
<rect width="80" height="80" fill="#EAEDF0"/>
<path d="M25.6999 55.6C26.6992 54.4809 31.3789 49.3311 32.7503 49.3311H47.2505C49.2378 49.3311 53.2946 53.6 54.2999 55.1047M60.7999 40C60.7999 51.4875 51.4875 60.8 39.9999 60.8C28.5124 60.8 19.2 51.4875 19.2 40C19.2 28.5125 28.5124 19.2 39.9999 19.2C51.4875 19.2 60.7999 28.5125 60.7999 40ZM47.4508 35.0773C47.4508 31.109 44.1008 27.8667 40.0006 27.8667C35.9004 27.8667 32.5504 31.109 32.5504 35.0773C32.5504 39.0455 35.9004 42.2878 40.0006 42.2878C44.1007 42.2878 47.4508 39.0455 47.4508 35.0773Z" stroke="#C3C3C4" stroke-width="2"/>
</svg>
